# This file uses centimeters as units for non-parametric coordinates.

mtllib ride_T.mtl
g default
v 40.000000 -0.500000 -1.000000
v 40.000000 -0.500000 -26.000000
v 40.000000 0.500000 -1.000000
v 40.000000 0.500000 -26.000000
v -40.000000 0.500000 -1.000000
v -40.000000 0.500000 -26.000000
v -40.000000 -0.500000 -1.000000
v -40.000000 -0.500000 -26.000000
v -12.500000 -0.500000 49.000000
v 12.500000 -0.500000 49.000000
v -12.500000 0.500000 49.000000
v 12.500000 0.500000 49.000000
v -12.500000 0.500000 -1.000000
v 12.500000 0.500000 -1.000000
v -12.500000 -0.500000 -1.000000
v 12.500000 -0.500000 -1.000000
vt 0.031388 0.044900
vt 0.967290 0.935496
vt 0.042828 0.044753
vt 0.328809 0.041087
vt 0.054559 0.959894
vt 0.340541 0.956227
vt 0.775912 0.309002
vt 0.351980 0.956081
vt 0.382683 0.295013
vt 0.423534 0.242926
vt 0.723140 0.292660
vt 0.395778 0.294923
vt 0.727666 0.947385
vt 0.400304 0.949648
vt 0.740761 0.947294
vt 0.813908 0.046718
vt 0.727757 0.960479
vt 0.814317 0.242109
vt 0.723050 0.279565
vt 0.736235 0.292569
vt 0.400394 0.962742
vt 0.387209 0.949738
vt 0.395687 0.281828
vt 0.423125 0.047535
vt 0.340687 0.967667
vt 0.971300 0.310255
vt 0.328662 0.029648
vt 0.340248 0.040941
vt 0.054706 0.971333
vt 0.043120 0.960040
vt 0.042681 0.033314
vt 0.771903 0.934243
vn 1.000000 0.000000 0.000000
vn 1.000000 0.000000 0.000000
vn 1.000000 0.000000 0.000000
vn 1.000000 0.000000 0.000000
vn 0.000000 1.000000 0.000000
vn 0.000000 1.000000 0.000000
vn 0.000000 1.000000 0.000000
vn 0.000000 1.000000 0.000000
vn -1.000000 0.000000 0.000000
vn -1.000000 0.000000 0.000000
vn -1.000000 0.000000 0.000000
vn -1.000000 0.000000 0.000000
vn 0.000000 -1.000000 0.000000
vn 0.000000 -1.000000 0.000000
vn 0.000000 -1.000000 0.000000
vn 0.000000 -1.000000 0.000000
vn 0.000000 0.000000 -1.000000
vn 0.000000 0.000000 -1.000000
vn 0.000000 0.000000 -1.000000
vn 0.000000 0.000000 -1.000000
vn 0.000000 0.000000 1.000000
vn 0.000000 0.000000 1.000000
vn 0.000000 0.000000 1.000000
vn 0.000000 0.000000 1.000000
vn 0.000000 0.000000 1.000000
vn 0.000000 0.000000 1.000000
vn 0.000000 0.000000 1.000000
vn 0.000000 0.000000 1.000000
vn 0.000000 1.000000 0.000000
vn 0.000000 1.000000 0.000000
vn 0.000000 1.000000 0.000000
vn 0.000000 1.000000 0.000000
vn 0.000000 0.000000 -1.000000
vn 0.000000 0.000000 -1.000000
vn 0.000000 0.000000 -1.000000
vn 0.000000 0.000000 -1.000000
vn 0.000000 -1.000000 0.000000
vn 0.000000 -1.000000 0.000000
vn 0.000000 -1.000000 0.000000
vn 0.000000 -1.000000 0.000000
vn 1.000000 0.000000 0.000000
vn 1.000000 0.000000 0.000000
vn 1.000000 0.000000 0.000000
vn 1.000000 0.000000 0.000000
vn -1.000000 0.000000 0.000000
vn -1.000000 0.000000 0.000000
vn -1.000000 0.000000 0.000000
vn -1.000000 0.000000 0.000000
s off
g ride_T
usemtl initialShadingGroup
f 1/31/1 2/27/2 4/4/3 3/3/4
f 3/3/5 4/4/6 6/6/7 5/5/8
f 5/5/9 6/6/10 8/25/11 7/29/12
f 7/7/13 8/26/14 2/2/15 1/32/16
f 2/28/17 8/8/18 6/6/19 4/4/20
f 7/30/21 1/1/22 3/3/23 5/5/24
f 9/23/25 10/19/26 12/11/27 11/12/28
f 11/12/29 12/11/30 14/13/31 13/14/32
f 13/14/33 14/13/34 16/17/35 15/21/36
f 15/16/37 16/18/38 10/10/39 9/24/40
f 10/20/41 16/15/42 14/13/43 12/11/44
f 15/22/45 9/9/46 11/12/47 13/14/48
