# This file uses centimeters as units for non-parametric coordinates.

mtllib repair_of_roads.mtl
g default
v -6.356301 -0.113343 8.994584
v 6.356301 -0.113343 8.994584
v -5.485487 -0.113343 8.994584
v 5.612613 -0.113343 8.994584
v -6.356301 3.400829 5.480412
v -5.485487 3.400829 5.480412
v 5.612613 3.400829 5.480412
v 6.356301 3.400829 5.480412
v -6.356301 8.336474 0.544766
v -5.485487 8.336474 0.544766
v 5.612613 8.336474 0.544766
v 6.356301 8.336474 0.544766
v -6.356301 3.967739 4.913502
v -5.485487 3.967739 4.913502
v 5.612613 3.967739 4.913502
v 6.356301 3.967739 4.913502
v -6.356301 8.619318 0.827609
v -5.485487 8.619318 0.827609
v -5.485487 9.158669 0.288258
v -6.356301 9.158669 0.288258
v 5.612613 8.619318 0.827609
v 5.612613 9.158669 0.288258
v 6.356301 8.619318 0.827609
v 6.356301 9.158669 0.288258
v -6.356301 0.169499 9.277428
v -5.485487 0.169499 9.277428
v -5.485487 3.683671 5.763255
v -6.356301 3.683671 5.763255
v 5.612613 3.683671 5.763255
v 6.356301 3.683671 5.763255
v 5.612613 0.169499 9.277428
v 6.356301 0.169499 9.277428
v -6.356301 4.250582 5.196344
v -5.485487 4.250582 5.196344
v 5.612613 4.250582 5.196344
v 6.356301 4.250582 5.196344
v -6.356301 8.902161 1.110451
v -5.485487 8.902161 1.110451
v -5.485487 9.441511 0.571101
v -6.356301 9.441511 0.571101
v 5.612613 8.902161 1.110451
v 5.612613 9.441511 0.571101
v 6.356301 8.902161 1.110451
v 6.356301 9.441511 0.571101
v -6.356301 0.452342 9.560269
v -5.485487 0.452342 9.560269
v -5.485487 3.966514 6.046098
v -6.356301 3.966514 6.046098
v 5.612613 3.966514 6.046098
v 6.356301 3.966514 6.046098
v 5.612613 0.452342 9.560269
v 6.356301 0.452342 9.560269
v -6.356301 4.533425 5.479187
v -5.485487 4.533425 5.479187
v 5.612613 4.533425 5.479187
v 6.356301 4.533425 5.479187
v -6.356301 8.781241 0.100000
v -5.485487 8.781241 0.100000
v 5.612613 8.781241 0.100000
v 6.356301 8.781241 0.100000
v -5.485487 8.970408 0.100000
v -6.356301 8.970408 0.100000
v 5.612613 8.970408 0.100000
v 6.356301 8.970408 0.100000
v -6.356301 -0.113343 -8.794584
v 6.356301 -0.113343 -8.794584
v -5.485487 -0.113343 -8.794584
v 5.612613 -0.113343 -8.794584
v -6.356301 3.400829 -5.280412
v -5.485487 3.400829 -5.280412
v 5.612613 3.400829 -5.280412
v 6.356301 3.400829 -5.280412
v -6.356301 8.336475 -0.344767
v -5.485487 8.336475 -0.344767
v 5.612613 8.336475 -0.344767
v 6.356301 8.336475 -0.344767
v -6.356301 3.967739 -4.713504
v -5.485487 3.967739 -4.713504
v 5.612613 3.967739 -4.713504
v 6.356301 3.967739 -4.713504
v -6.356301 8.619318 -0.627610
v -5.485487 8.619318 -0.627610
v -5.485487 9.158669 -0.088259
v -6.356301 9.158669 -0.088259
v 5.612613 8.619318 -0.627610
v 5.612613 9.158669 -0.088259
v 6.356301 8.619318 -0.627610
v 6.356301 9.158669 -0.088259
v -6.356301 0.169499 -9.077428
v -5.485487 0.169499 -9.077428
v -5.485487 3.683672 -5.563256
v -6.356301 3.683672 -5.563256
v 5.612613 3.683672 -5.563256
v 6.356301 3.683672 -5.563256
v 5.612613 0.169499 -9.077428
v 6.356301 0.169499 -9.077428
v -6.356301 4.250582 -4.996346
v -5.485487 4.250582 -4.996346
v 5.612613 4.250582 -4.996346
v 6.356301 4.250582 -4.996346
v -6.356301 8.902161 -0.910451
v -5.485487 8.902161 -0.910451
v -5.485487 9.441510 -0.371101
v -6.356301 9.441510 -0.371101
v 5.612613 8.902161 -0.910451
v 5.612613 9.441510 -0.371101
v 6.356301 8.902161 -0.910451
v 6.356301 9.441510 -0.371101
v -6.356301 0.452342 -9.360270
v -5.485487 0.452342 -9.360270
v -5.485487 3.966514 -5.846098
v -6.356301 3.966514 -5.846098
v 5.612613 3.966514 -5.846098
v 6.356301 3.966514 -5.846098
v 5.612613 0.452342 -9.360270
v 6.356301 0.452342 -9.360270
v -6.356301 4.533424 -5.279189
v -5.485487 4.533424 -5.279189
v 5.612613 4.533424 -5.279189
v 6.356301 4.533424 -5.279189
vt 0.364902 0.581692
vt 0.471329 0.021720
vt 0.348557 0.538576
vt 0.423825 0.024654
vt 0.482830 0.470661
vt 0.437003 0.418799
vt 0.478046 0.179794
vt 0.532487 0.144049
vt 0.581565 0.554154
vt 0.589969 0.499554
vt 0.624150 0.161674
vt 0.645174 0.113780
vt 0.483050 0.472814
vt 0.503673 0.438046
vt 0.540810 0.188445
vt 0.536343 0.139870
vt 0.050747 0.356842
vt 0.319274 0.356600
vt 0.050881 0.506331
vt 0.319409 0.506089
vt 0.628045 0.508354
vt 0.628091 0.534584
vt 0.587224 0.543589
vt 0.676007 0.166642
vt 0.647171 0.125410
vt 0.669004 0.125810
vt 0.376619 0.575863
vt 0.359011 0.544451
vt 0.448434 0.422929
vt 0.476278 0.460831
vt 0.490337 0.180933
vt 0.428614 0.036447
vt 0.462506 0.029615
vt 0.524550 0.153238
vt 0.481977 0.460755
vt 0.534110 0.151617
vt 0.616081 0.510424
vt 0.613986 0.537265
vt 0.589231 0.532483
vt 0.593805 0.509771
vt 0.640991 0.157154
vt 0.663988 0.164138
vt 0.647376 0.136955
vt 0.669489 0.140037
vt 0.386969 0.567315
vt 0.369084 0.549665
vt 0.460004 0.426435
vt 0.470455 0.450572
vt 0.503313 0.181180
vt 0.435481 0.046011
vt 0.453727 0.036941
vt 0.517079 0.162941
vt 0.487579 0.425896
vt 0.481260 0.449097
vt 0.529775 0.184668
vt 0.533148 0.163099
vt 0.665328 0.545951
vt 0.050733 0.341623
vt 0.319260 0.341381
vt 0.337255 0.341365
vt 0.635965 0.506552
vt 0.636968 0.532494
vt 0.684017 0.169207
vt 0.717942 0.140211
vt 0.676735 0.516994
vt 0.677385 0.490229
vt 0.655320 0.499432
vt 0.656604 0.526000
vt 0.725744 0.192902
vt 0.703779 0.178383
vt 0.727326 0.170723
vt 0.708224 0.157615
vt 0.942662 0.664807
vt 0.957102 0.650701
vt 0.886599 0.538117
vt 0.867767 0.561166
vt 0.858308 0.217208
vt 0.872644 0.234908
vt 0.904985 0.133438
vt 0.889781 0.127799
vt 0.853277 0.556412
vt 0.861084 0.533974
vt 0.725452 0.206945
vt 0.686526 0.486634
vt 0.859749 0.525056
vt 0.834774 0.230503
vt 0.845336 0.234034
vt 0.845199 0.212431
vt 0.677300 0.541040
vt 0.050719 0.326404
vt 0.943335 0.685536
vt 0.852923 0.582353
vt 0.912039 0.540656
vt 0.977194 0.653598
vt 0.846691 0.196249
vt 0.881770 0.107583
vt 0.915246 0.115460
vt 0.896637 0.239012
vt 0.844272 0.578491
vt 0.050585 0.176914
vt 0.319247 0.326162
vt 0.319112 0.176672
vt 0.733963 0.147914
vt 0.846066 0.188914
vt 0.643818 0.504209
vt 0.645322 0.530066
vt 0.676921 0.529026
vt 0.691963 0.172451
vt 0.713314 0.146329
vt 0.860082 0.571989
vt 0.943370 0.674839
vt 0.884681 0.236786
vt 0.907963 0.124132
vt 0.848503 0.567204
vt 0.729099 0.159058
vt 0.966595 0.652036
vt 0.898415 0.536247
vt 0.885898 0.117999
vt 0.852166 0.206753
vt 0.845092 0.200731
vt 0.968490 0.957158
vt 0.839322 0.239107
vt 0.523375 0.957158
vt 0.851805 0.529392
vt 0.050567 0.157516
vt 0.910217 0.534066
vt 0.899906 0.538605
vt 0.337241 0.326145
vt 0.663125 0.113367
vt 0.722883 0.139410
vt 0.523375 0.709362
vt 0.680617 0.471182
vt 0.968491 0.709362
vt 0.725454 0.206948
vt 0.886886 0.230228
vt 0.319095 0.157274
vt 0.898695 0.225574
vt 0.697409 0.151814
vt 0.667561 0.117314
vt 0.689565 0.148119
vt 0.658672 0.536670
vt 0.604290 0.558060
vt 0.661070 0.543755
vt 0.337089 0.157257
vt 0.337106 0.176656
vt 0.029497 0.157534
vt 0.029515 0.176933
vt 0.029649 0.326423
vt 0.318986 0.037026
vt 0.336980 0.037009
vt 0.029389 0.037286
vt 0.050459 0.037267
vt 0.598804 0.560287
vt 0.029663 0.341642
vt 0.681501 0.144806
vt 0.608471 0.550673
vt 0.038605 0.958599
vt 0.541548 0.181776
vt 0.483720 0.958599
vt 0.490771 0.417152
vt 0.448154 0.025731
vt 0.425015 0.049255
vt 0.491332 0.181339
vt 0.447574 0.424166
vt 0.360402 0.556067
vt 0.396225 0.574230
vt 0.038605 0.710803
vt 0.639176 0.166881
vt 0.483720 0.710803
vt 0.582561 0.500861
vt 0.337529 0.645720
vt 0.442057 0.016204
vt 0.319534 0.645736
vt 0.414037 0.052929
vt 0.319426 0.525488
vt 0.479380 0.182116
vt 0.050899 0.525730
vt 0.435690 0.422729
vt 0.051007 0.645978
vt 0.351902 0.562915
vt 0.029937 0.645997
vt 0.405082 0.582135
vt 0.337403 0.506073
vt 0.337268 0.356584
vt 0.029811 0.506350
vt 0.029677 0.356861
vt 0.337420 0.525472
vt 0.029829 0.525749
vn 0.000000 0.707107 0.707107
vn 0.000000 0.707106 0.707107
vn 0.000000 0.707106 0.707107
vn 0.000000 0.707107 0.707107
vn 0.000000 0.707106 0.707107
vn 0.000000 0.707106 0.707107
vn 0.000000 0.707107 0.707107
vn 0.000000 0.707106 0.707107
vn 0.000000 0.707107 0.707107
vn 0.000000 0.707107 0.707107
vn 0.000000 0.707107 0.707107
vn 0.000000 0.707107 0.707107
vn 0.000000 0.707107 0.707107
vn 0.000000 0.707107 0.707107
vn 0.000000 0.707107 0.707107
vn 0.000000 0.707107 0.707107
vn 0.000000 0.707107 0.707107
vn 0.000000 0.707107 0.707107
vn 0.000000 0.707107 0.707107
vn 0.000000 0.707107 0.707107
vn 0.000000 0.707107 0.707107
vn 0.000000 0.707107 0.707107
vn 0.000000 0.707107 0.707107
vn 0.000000 0.707107 0.707107
vn 0.000000 -0.707107 -0.707107
vn 0.000000 -0.707106 -0.707107
vn 0.000000 -0.707106 -0.707107
vn 0.000000 -0.707107 -0.707107
vn 0.000000 -0.707107 -0.707107
vn 0.000000 -0.707107 -0.707107
vn 0.000000 -0.707107 -0.707107
vn 0.000000 -0.707107 -0.707107
vn 0.000000 -0.707107 -0.707107
vn 0.000000 -0.707107 -0.707107
vn 0.000000 -0.707107 -0.707107
vn 0.000000 -0.707107 -0.707107
vn 0.000000 -0.707107 -0.707107
vn 0.000000 -0.707107 -0.707107
vn 0.000000 -0.707107 -0.707107
vn 0.000000 -0.707107 -0.707107
vn 0.000000 -0.707107 -0.707107
vn 0.000000 -0.707107 -0.707107
vn 0.000000 0.707105 -0.707108
vn 0.000000 0.707105 -0.707108
vn 0.000000 0.707106 -0.707108
vn 0.000000 0.707106 -0.707108
vn 0.000000 0.707106 -0.707108
vn 0.000000 0.707105 -0.707108
vn -1.000000 -0.000000 0.000000
vn -1.000000 0.000000 0.000000
vn -1.000000 0.000000 0.000000
vn -1.000000 -0.000001 0.000000
vn -1.000000 -0.000001 0.000000
vn -1.000000 -0.000001 0.000000
vn -1.000000 -0.000000 0.000000
vn 0.000000 0.707105 -0.707108
vn 0.000000 0.707105 -0.707108
vn 0.000000 0.707105 -0.707108
vn 0.000000 0.707105 -0.707108
vn 0.000000 0.707105 -0.707108
vn 0.000000 0.707105 -0.707108
vn -1.000000 -0.000000 0.000000
vn -1.000000 -0.000000 0.000000
vn -1.000000 -0.000000 0.000000
vn -1.000000 -0.000000 0.000000
vn -1.000000 -0.000000 0.000000
vn -1.000000 -0.000000 0.000000
vn -1.000000 0.000000 0.000000
vn -1.000000 0.000000 0.000000
vn -1.000000 0.000000 0.000000
vn -1.000000 0.000000 0.000000
vn -1.000000 0.000000 0.000000
vn -1.000000 0.000000 0.000000
vn -1.000000 -0.000001 0.000000
vn -1.000000 -0.000001 0.000000
vn -1.000000 -0.000001 0.000000
vn 0.000000 -0.707106 0.707107
vn 0.000000 -0.707106 0.707107
vn 0.000000 -0.707106 0.707107
vn 0.000000 -0.707106 0.707107
vn 1.000000 0.000000 0.000000
vn 1.000000 0.000000 0.000000
vn 1.000000 -0.000001 0.000000
vn 1.000000 -0.000001 0.000000
vn 1.000000 -0.000001 0.000000
vn 1.000000 0.000000 0.000000
vn 1.000000 0.000000 0.000000
vn 0.000000 -0.707107 0.707107
vn 0.000000 -0.707107 0.707107
vn 0.000000 -0.707107 0.707107
vn 0.000000 -0.707107 0.707107
vn 0.000000 -0.707107 0.707107
vn 0.000000 -0.707107 0.707107
vn 1.000000 -0.000000 0.000000
vn 1.000000 -0.000000 0.000000
vn 1.000000 -0.000000 0.000000
vn 1.000000 -0.000000 0.000000
vn 1.000000 -0.000000 0.000000
vn 1.000000 -0.000000 0.000000
vn 0.000000 -0.707107 0.707107
vn 0.000000 -0.707107 0.707107
vn 0.000000 -0.707107 0.707107
vn 0.000000 -0.707107 0.707107
vn 0.000000 -0.707107 0.707107
vn 0.000000 -0.707107 0.707107
vn 1.000000 -0.000000 0.000000
vn 1.000000 -0.000000 0.000000
vn 1.000000 -0.000000 0.000000
vn 1.000000 -0.000000 0.000000
vn 1.000000 -0.000000 0.000000
vn 1.000000 -0.000000 0.000000
vn 1.000000 0.000000 0.000000
vn 1.000000 0.000000 0.000000
vn 1.000000 0.000000 0.000000
vn 1.000000 0.000000 0.000000
vn -1.000000 0.000001 0.000000
vn -1.000000 0.000001 0.000000
vn -1.000000 0.000001 0.000000
vn -1.000000 0.000001 0.000000
vn 1.000000 -0.000001 0.000000
vn 1.000000 -0.000001 0.000000
vn 1.000000 -0.000001 0.000000
vn 0.000000 0.707107 -0.707107
vn 0.000000 0.707107 -0.707107
vn 0.000000 0.707107 -0.707107
vn 0.000000 0.707107 -0.707107
vn 0.000000 -0.707107 0.707107
vn 0.000000 -0.707107 0.707107
vn 0.000000 -0.707107 0.707107
vn 0.000000 -0.707107 0.707107
vn 0.000000 -0.707107 0.707107
vn 0.000000 -0.707107 0.707107
vn 0.000000 -0.707106 -0.707107
vn 0.000000 -0.707107 -0.707107
vn 0.000000 0.707107 -0.707107
vn 0.000000 0.707107 -0.707107
vn 0.000000 0.707107 -0.707106
vn 0.000000 0.707107 -0.707106
vn 0.000000 0.707107 -0.707106
vn 0.000000 0.707107 -0.707106
vn 0.000000 0.707107 -0.707106
vn 0.000000 0.707107 -0.707107
vn 0.000000 0.707107 -0.707107
vn 0.000000 0.707107 -0.707107
vn 0.000000 0.707107 -0.707107
vn 0.000000 0.707107 -0.707107
vn 0.000000 0.707107 -0.707107
vn 0.000000 0.707107 -0.707107
vn 0.000000 0.707107 -0.707107
vn 0.000000 0.707107 -0.707107
vn 0.000000 0.707107 -0.707107
vn 0.000000 0.707107 -0.707107
vn 0.000000 0.707107 -0.707107
vn 0.000000 0.707107 -0.707107
vn 0.000000 0.707107 -0.707107
vn 0.000000 0.707107 -0.707107
vn 0.000000 0.707107 -0.707107
vn 0.000000 0.707107 -0.707107
vn 0.000000 -0.707107 0.707107
vn 0.000000 -0.707107 0.707107
vn 0.000000 -0.707107 0.707106
vn 0.000000 -0.707107 0.707107
vn 0.000000 -0.707107 0.707107
vn 0.000000 -0.707107 0.707107
vn 0.000000 -0.707106 0.707107
vn 0.000000 -0.707107 0.707107
vn 0.000000 -0.707107 0.707107
vn 0.000000 -0.707106 0.707107
vn 0.000000 -0.707107 0.707107
vn 0.000000 -0.707107 0.707107
vn 0.000000 -0.707107 0.707107
vn 0.000000 -0.707107 0.707107
vn 0.000000 -0.707107 0.707107
vn 0.000000 -0.707107 0.707107
vn 0.000000 -0.707107 0.707107
vn 0.000000 -0.707107 0.707107
vn 0.000000 0.707107 0.707107
vn 0.000000 0.707107 0.707107
vn 0.000000 0.707106 0.707107
vn 0.000000 0.707106 0.707107
vn 0.000000 0.707106 0.707107
vn 0.000000 0.707107 0.707107
vn -1.000000 0.000001 0.000000
vn -1.000000 0.000001 0.000000
vn -1.000000 0.000000 0.000000
vn -1.000000 0.000000 0.000000
vn -1.000000 0.000000 0.000000
vn 0.000000 0.707107 0.707107
vn 0.000000 0.707107 0.707107
vn 0.000000 0.707107 0.707107
vn 0.000000 0.707106 0.707107
vn 0.000000 0.707106 0.707107
vn 0.000000 0.707106 0.707107
vn -1.000000 0.000000 0.000000
vn -1.000000 0.000000 0.000000
vn -1.000000 0.000000 0.000000
vn -1.000000 0.000000 0.000000
vn -1.000000 0.000000 0.000000
vn -1.000000 0.000000 0.000000
vn -1.000000 -0.000000 0.000000
vn -1.000000 -0.000000 0.000000
vn -1.000000 -0.000000 0.000000
vn -1.000000 -0.000000 0.000000
vn -1.000000 -0.000000 0.000000
vn -1.000000 -0.000000 0.000000
vn -1.000000 0.000000 0.000000
vn -1.000000 0.000000 0.000000
vn -1.000000 0.000000 0.000000
vn 0.000000 -0.707105 -0.707108
vn 0.000000 -0.707105 -0.707108
vn 0.000000 -0.707105 -0.707108
vn 0.000000 -0.707105 -0.707108
vn 1.000000 0.000000 0.000000
vn 1.000000 0.000000 0.000000
vn 1.000000 0.000000 0.000000
vn 1.000000 0.000000 0.000000
vn 1.000000 0.000000 0.000000
vn 0.000000 -0.707107 -0.707107
vn 0.000000 -0.707107 -0.707107
vn 0.000000 -0.707107 -0.707107
vn 0.000000 -0.707107 -0.707107
vn 0.000000 -0.707107 -0.707107
vn 0.000000 -0.707107 -0.707107
vn 1.000000 -0.000000 0.000000
vn 1.000000 -0.000000 0.000000
vn 1.000000 -0.000000 0.000000
vn 1.000000 -0.000000 0.000000
vn 1.000000 -0.000000 0.000000
vn 1.000000 -0.000000 0.000000
vn 0.000000 -0.707107 -0.707107
vn 0.000000 -0.707107 -0.707107
vn 0.000000 -0.707107 -0.707107
vn 0.000000 -0.707107 -0.707107
vn 0.000000 -0.707107 -0.707107
vn 0.000000 -0.707107 -0.707107
vn 1.000000 0.000000 0.000000
vn 1.000000 0.000000 0.000000
vn 1.000000 0.000000 0.000000
vn 1.000000 0.000000 0.000000
vn 1.000000 0.000000 0.000000
vn 1.000000 0.000000 0.000000
vn 1.000000 0.000001 0.000000
vn 1.000000 0.000001 0.000000
vn 1.000000 0.000001 0.000000
vn 1.000000 0.000001 0.000000
vn -1.000000 0.000002 0.000000
vn -1.000000 0.000002 0.000000
vn -1.000000 0.000002 0.000000
vn -1.000000 0.000002 0.000000
vn 1.000000 0.000000 0.000000
vn 1.000000 0.000000 0.000000
vn 1.000000 0.000000 0.000000
vn 0.000000 0.707107 0.707107
vn 0.000000 0.707107 0.707107
vn 0.000000 0.707107 0.707107
vn 0.000000 0.707107 0.707107
vn 0.000000 -0.707107 -0.707106
vn 0.000000 -0.707107 -0.707106
vn 0.000000 -0.707107 -0.707106
vn 0.000000 -0.707107 -0.707106
vn 0.000000 -0.707107 -0.707106
vn 0.000000 -0.707107 -0.707106
vn 0.000000 -0.707107 0.707106
vn 0.000000 -0.707108 0.707106
s 1
g repair_of_roads
usemtl initialShadingGroup
f 37/39/1 38/40/2 39/37/3 40/38/4
f 39/37/3 38/40/2 41/41/5 42/42/6
f 42/42/6 41/41/5 43/43/7 44/44/8
f 45/45/9 46/46/10 47/47/11 48/48/12
f 50/52/13 49/49/14 51/50/15 52/51/16
f 53/54/17 54/53/18 38/40/2 37/39/1
s off
f 21/167/19 18/169/20 34/159/21 35/157/22
s 1
f 43/43/7 41/41/5 55/55/23 56/56/24
f 48/48/12 47/47/11 54/53/18 53/54/17
f 55/55/23 54/53/18 47/47/11 49/49/14
f 56/56/24 55/55/23 49/49/14 50/52/13
s 4
f 9/186/25 57/154/26 58/58/27 10/17/28
f 1/181/29 5/188/30 6/177/31 3/179/32
f 8/187/33 2/171/34 4/173/35 7/175/36
f 13/185/37 9/186/25 10/17/28 14/19/38
f 11/18/39 15/20/40 14/19/38 10/17/28
f 12/184/41 16/183/42 15/20/40 11/18/39
f 5/188/30 13/185/37 14/19/38 6/177/31
f 15/20/40 7/175/36 6/177/31 14/19/38
f 16/183/42 8/187/33 7/175/36 15/20/40
s 7
f 19/21/43 61/61/44 62/62/45 20/22/46 40/38/47 39/37/48
s 8
f 20/156/49 62/142/50 57/153/51 9/9/52 17/23/53 37/39/54 40/38/55
s 7
f 22/24/56 63/63/57 61/61/44 19/21/43 39/37/48 42/42/58
f 24/155/59 64/140/60 63/63/57 22/24/56 42/42/58 44/44/61
s 8
f 28/30/62 5/5/63 1/182/64 25/166/65 45/45/66 48/48/67
s off
f 29/31/68 7/7/69 4/174/70 31/162/71 51/50/72 49/49/73
s 8
f 17/23/53 9/9/52 13/13/74 33/35/75 53/54/76 37/39/54
f 33/35/75 13/13/74 5/5/63 28/30/62 48/48/67 53/54/76
s off
f 18/10/77 21/168/78 41/41/79 38/40/80
s 10
f 24/26/81 44/44/82 43/43/83 23/25/84 12/12/85 60/129/86 64/139/87
s off
f 26/165/88 46/46/89 45/45/90 25/27/91 1/1/92 3/180/93
f 27/164/94 47/47/95 46/46/96 26/28/97 3/3/98 6/178/99
f 32/161/100 52/51/101 51/50/102 31/32/103 4/4/104 2/172/105
s 10
f 30/34/106 50/52/107 52/51/108 32/33/109 2/2/110 8/8/111
s off
f 34/14/112 18/170/113 38/40/114 54/53/115
f 21/11/116 35/158/117 55/55/118 41/41/119
s 10
f 23/25/84 43/43/83 56/56/120 36/36/121 16/16/122 12/12/85
s off
f 35/15/123 34/160/124 54/53/125 55/55/126
f 29/163/127 49/49/128 47/47/129 27/29/130 6/6/131 7/176/132
s 10
f 36/36/121 56/56/120 50/52/107 30/34/106 8/8/111 16/16/122
s 4
f 58/58/27 59/59/133 11/18/39 10/17/28
f 59/59/133 60/60/134 12/184/41 11/18/39
s 12
f 101/65/135 104/68/136 103/67/137 102/66/138
f 103/67/137 106/70/139 105/69/140 102/66/138
f 106/70/139 108/72/141 107/71/142 105/69/140
f 109/73/143 112/76/144 111/75/145 110/74/146
f 114/77/147 116/80/148 115/79/149 113/78/150
f 117/81/151 101/65/135 102/66/138 118/82/152
s off
f 85/133/153 99/121/154 98/123/155 82/131/156
s 12
f 107/71/142 120/88/157 119/87/158 105/69/140
f 112/76/144 117/81/151 118/82/152 111/75/145
f 119/87/158 113/78/150 111/75/145 118/82/152
f 120/88/157 114/77/147 113/78/150 119/87/158
s 15
f 73/148/159 74/90/160 58/58/161 57/154/162
f 65/151/163 67/152/164 70/125/165 69/146/166
f 72/144/167 71/136/168 68/149/169 66/150/170
f 77/147/171 78/100/172 74/90/160 73/148/159
f 75/101/173 74/90/160 78/100/172 79/102/174
f 76/128/175 75/101/173 79/102/174 80/145/176
f 69/146/166 70/125/165 78/100/172 77/147/171
f 79/102/174 78/100/172 70/125/165 71/136/168
f 80/145/176 79/102/174 71/136/168 72/144/167
s 18
f 83/105/177 103/67/178 104/68/179 84/106/180 62/62/181 61/61/182
s 8
f 84/141/183 104/68/184 101/65/185 81/107/186 73/89/187 57/57/51 62/143/50
s 18
f 86/108/188 106/70/189 103/67/178 83/105/177 61/61/182 63/63/190
f 88/138/191 108/72/192 106/70/189 86/108/188 63/63/190 64/140/193
s 8
f 92/110/194 112/76/195 109/73/196 89/111/197 65/91/198 69/92/199
s off
f 93/135/200 113/78/201 115/79/202 95/113/203 68/97/204 71/137/205
s 8
f 81/107/186 101/65/185 117/81/206 97/114/207 77/99/208 73/89/187
f 97/114/207 117/81/206 112/76/195 92/110/194 69/92/199 77/99/208
s off
f 82/132/209 102/66/210 105/69/211 85/83/212
s 10
f 88/109/213 64/64/87 60/130/86 76/103/214 87/115/215 107/71/216 108/72/217
s off
f 90/116/218 67/94/219 65/91/220 89/111/221 109/73/222 110/74/223
f 91/127/224 70/93/225 67/94/226 90/116/227 110/74/228 111/75/229
f 96/118/230 66/96/231 68/97/232 95/113/233 115/79/234 116/80/235
s 10
f 94/119/236 72/95/237 66/96/238 96/118/239 116/80/240 114/77/241
s off
f 98/124/242 118/82/243 102/66/244 82/84/245
f 85/134/246 105/69/247 119/87/248 99/86/249
s 10
f 87/115/215 76/103/214 80/104/250 100/120/251 120/88/252 107/71/216
s off
f 99/122/253 119/87/254 118/82/255 98/85/256
f 93/112/257 71/98/258 70/126/259 91/117/260 111/75/261 113/78/262
s 10
f 100/120/251 80/104/250 72/95/237 94/119/236 114/77/241 120/88/252
s 15
f 58/58/161 74/90/160 75/101/173 59/59/263
f 59/59/263 75/101/173 76/128/175 60/60/264
