# This file uses centimeters as units for non-parametric coordinates.

mtllib bardyr.mtl
g default
v -14.125196 -0.004382 -1.101743
v 13.667700 -0.004382 -1.101743
v -14.125196 -0.004382 0.532005
v 13.667700 -0.004382 0.532005
v -14.125196 1.527635 0.532005
v 13.667700 1.527635 0.532005
v -14.125196 1.527635 -1.101743
v 13.667700 1.527635 -1.101743
vt 0.682235 0.956045
vt 0.682181 0.044372
vt 0.721079 0.955948
vt 0.721025 0.044275
vt 0.759924 0.955852
vt 0.759870 0.044178
vt 0.798768 0.955755
vt 0.798714 0.044082
vt 0.837613 0.955659
vt 0.837559 0.043985
vt 0.682126 -0.867302
vt 0.720971 -0.867399
vt 0.682289 1.867719
vt 0.721134 1.867622
vn 0.000000 -1.000000 0.000000
vn 0.000000 -1.000000 0.000000
vn 0.000000 -1.000000 0.000000
vn 0.000000 -1.000000 0.000000
vn 0.000000 0.000000 1.000000
vn 0.000000 0.000000 1.000000
vn 0.000000 0.000000 1.000000
vn 0.000000 0.000000 1.000000
vn 0.000000 1.000000 0.000000
vn 0.000000 1.000000 0.000000
vn 0.000000 1.000000 0.000000
vn 0.000000 1.000000 0.000000
vn 0.000000 -0.000000 -1.000000
vn 0.000000 -0.000000 -1.000000
vn 0.000000 -0.000000 -1.000000
vn 0.000000 -0.000000 -1.000000
vn 1.000000 0.000000 0.000000
vn 1.000000 0.000000 0.000000
vn 1.000000 0.000000 0.000000
vn 1.000000 0.000000 0.000000
vn -1.000000 0.000000 0.000000
vn -1.000000 0.000000 0.000000
vn -1.000000 0.000000 0.000000
vn -1.000000 0.000000 0.000000
s off
g bardyr
usemtl blinn6SG
f 1/1/1 2/2/2 4/4/3 3/3/4
f 3/3/5 4/4/6 6/6/7 5/5/8
f 5/5/9 6/6/10 8/8/11 7/7/12
f 7/7/13 8/8/14 2/10/15 1/9/16
f 2/2/17 8/11/18 6/12/19 4/4/20
f 7/13/21 1/1/22 3/3/23 5/14/24
