# This file uses centimeters as units for non-parametric coordinates.

mtllib shrub_3.mtl
g default
v -3.754563 -0.115423 1.648823
v 0.333191 -0.495589 3.688842
v -4.143363 3.918112 2.180562
v -0.727204 3.237474 -2.705958
v -1.846605 0.207708 -2.900888
v 3.525250 0.230174 -1.583921
v -2.842011 5.215642 0.934741
v 4.663135 3.028314 -1.543732
v 1.495677 0.053416 -2.774586
v 2.669799 -0.279126 1.816685
v -3.243586 -0.045831 -1.032378
v -2.168668 -0.588063 3.089138
v -2.392825 4.798089 4.190225
v 1.605886 5.383735 2.659521
v 1.768133 4.774010 -2.494933
v 3.725818 1.888251 2.157491
v -4.416576 0.425490 1.836217
v 2.180791 5.606048 -0.522867
v 2.216357 3.552057 -2.579634
v 1.035993 3.360496 3.686983
v -2.829280 1.173487 4.223966
v -1.967868 6.998931 2.125877
v -0.887116 7.609726 2.878834
v 1.950958 1.747390 -2.852576
v -1.445962 -0.320542 -1.513277
v -1.682746 -1.169199 2.106369
v 3.526740 0.532963 1.998146
v 4.575795 3.204050 0.473860
v 0.607433 1.536731 4.718745
v -4.078464 0.772023 -1.753366
v -1.530061 1.314638 -3.678167
v -3.038085 -0.423457 2.349623
v -0.779867 -0.620485 3.541807
v 0.466309 0.163778 4.131754
v -0.331625 3.987140 4.311495
v 0.793632 5.545935 3.931467
v 2.831456 4.915771 0.301762
v 3.719684 5.064366 -1.383850
v 0.365339 3.913699 -2.739744
v -2.138398 4.327935 -1.749962
v -3.731448 4.785666 1.668387
v 4.131320 4.451777 -1.376984
v 4.323874 1.403655 -1.500704
v -1.803861 0.641724 -3.512203
v -1.104143 2.289068 -3.236355
v 3.071849 0.308035 -0.362859
v 1.088389 -0.610959 2.941298
v -3.550398 -0.239832 0.601955
v -2.605077 0.110423 -2.141770
vt 0.265844 0.131808
vt 0.230994 0.183919
vt 0.229116 0.154389
vt 0.306853 0.110453
vt 0.322923 0.189444
vt 0.366058 0.097043
vt 0.423997 0.116291
vt 0.414509 0.088034
vt 0.442909 0.169153
vt 0.367861 0.301820
vt 0.438838 0.264118
vt 0.258127 0.321738
vt 0.277924 0.370824
vt 0.374078 0.394887
vt 0.307551 0.424810
vt 0.420436 0.384625
vt 0.493326 0.333317
vt 0.520910 0.398765
vt 0.540250 0.505594
vt 0.493953 0.527013
vt 0.535793 0.588708
vt 0.453203 0.594905
vt 0.306921 0.541091
vt 0.389384 0.607689
vt 0.342900 0.618371
vt 0.454774 0.639219
vt 0.317441 0.655863
vt 0.428697 0.700341
vt 0.290969 0.693112
vt 0.545769 0.617222
vt 0.549662 0.677094
vt 0.400867 0.756064
vt 0.524347 0.738141
vt 0.483371 0.776466
vt 0.278687 0.720728
vt 0.295723 0.809274
vt 0.276609 0.751217
vt 0.249378 0.785128
vt 0.228607 0.831647
vt 0.469364 0.916327
vt 0.475756 0.828202
vt 0.413934 0.966819
vt 0.303583 0.947539
vt 0.388041 0.999500
vt 0.343970 0.999413
vt 0.286730 0.988939
vt 0.222224 0.896684
vt 0.249148 0.962973
vt 0.217119 0.938588
vt 0.450142 0.067202
vt 0.554947 0.081720
vt 0.525106 0.051085
vt 0.573974 0.129336
vt 0.609718 0.015455
vt 0.657232 0.000500
vt 0.688124 0.048126
vt 0.718236 0.110558
vt 0.654183 0.144324
vt 0.564264 0.283801
vt 0.728775 0.172954
vt 0.663262 0.233189
vt 0.733878 0.200947
vt 0.492720 0.226500
vt 0.506796 0.308358
vt 0.073486 0.159892
vt 0.112450 0.198858
vt 0.034026 0.161715
vt 0.015116 0.185007
vt 0.126311 0.151408
vt 0.000714 0.211252
vt 0.188200 0.148159
vt 0.231428 0.356382
vt 0.187543 0.380812
vt 0.000367 0.256638
vt 0.074524 0.337931
vt 0.002018 0.301503
vn -0.572379 -0.783888 0.240629
vn -0.572379 -0.783888 0.240629
vn -0.572379 -0.783888 0.240629
vn -0.577564 -0.609192 0.543419
vn -0.577564 -0.609192 0.543419
vn -0.577564 -0.609192 0.543419
vn -0.579943 -0.583638 0.568360
vn -0.579943 -0.583638 0.568360
vn -0.579943 -0.583638 0.568360
vn -0.307427 -0.209708 0.928176
vn -0.307427 -0.209708 0.928176
vn -0.307427 -0.209708 0.928176
vn -0.048386 -0.550200 0.833630
vn -0.048386 -0.550200 0.833630
vn -0.048386 -0.550200 0.833630
vn -0.153762 -0.575235 0.803406
vn -0.153762 -0.575235 0.803407
vn -0.153762 -0.575235 0.803407
vn -0.091774 -0.383468 0.918983
vn -0.091774 -0.383468 0.918983
vn -0.091774 -0.383468 0.918983
vn -0.145212 0.026693 0.989040
vn -0.145212 0.026693 0.989040
vn -0.145212 0.026693 0.989040
vn 0.007608 0.166780 0.985965
vn 0.007608 0.166780 0.985965
vn 0.007608 0.166780 0.985965
vn -0.771372 0.098737 0.628678
vn -0.771372 0.098737 0.628678
vn -0.771372 0.098737 0.628678
vn -0.834304 0.010920 0.551197
vn -0.834304 0.010920 0.551197
vn -0.834304 0.010920 0.551197
vn -0.755659 0.519744 0.398553
vn -0.755660 0.519745 0.398553
vn -0.755659 0.519745 0.398553
vn -0.726377 0.570853 0.382758
vn -0.726377 0.570853 0.382758
vn -0.726377 0.570853 0.382758
vn -0.657272 0.614051 -0.436962
vn -0.657272 0.614051 -0.436962
vn -0.657272 0.614051 -0.436962
vn -0.660588 0.577503 0.479702
vn -0.660588 0.577503 0.479702
vn -0.660588 0.577503 0.479702
vn 0.028178 0.217519 0.975649
vn 0.028178 0.217519 0.975649
vn 0.028178 0.217519 0.975649
vn 0.645763 0.691280 0.324226
vn 0.645763 0.691280 0.324226
vn 0.645763 0.691280 0.324226
vn -0.029085 0.435270 0.899830
vn -0.029085 0.435270 0.899830
vn -0.029085 0.435270 0.899830
vn 0.639233 0.757934 0.130069
vn 0.639233 0.757934 0.130069
vn 0.639233 0.757934 0.130069
vn 0.468674 0.823543 0.319566
vn 0.468674 0.823542 0.319566
vn 0.468674 0.823543 0.319566
vn 0.094450 0.910001 -0.403705
vn 0.094450 0.910001 -0.403705
vn 0.094450 0.910001 -0.403705
vn -0.702665 0.599944 -0.382530
vn -0.702665 0.599944 -0.382530
vn -0.702665 0.599944 -0.382530
vn -0.086449 0.822101 -0.562740
vn -0.086449 0.822101 -0.562740
vn -0.086449 0.822101 -0.562740
vn -0.076315 0.825113 -0.559790
vn -0.076315 0.825113 -0.559790
vn -0.076315 0.825113 -0.559790
vn -0.356143 0.742247 -0.567655
vn -0.356143 0.742246 -0.567655
vn -0.356143 0.742246 -0.567655
vn -0.277476 0.404773 -0.871301
vn -0.277476 0.404773 -0.871301
vn -0.277476 0.404773 -0.871301
vn -0.015313 0.492677 -0.870077
vn -0.015313 0.492678 -0.870077
vn -0.015313 0.492677 -0.870077
vn 0.106522 0.107590 -0.988472
vn 0.106522 0.107590 -0.988472
vn 0.106522 0.107590 -0.988472
vn 0.145760 0.126954 -0.981141
vn 0.145760 0.126954 -0.981141
vn 0.145760 0.126954 -0.981141
vn 0.176506 0.341428 -0.923186
vn 0.176506 0.341428 -0.923186
vn 0.176506 0.341428 -0.923186
vn 0.456134 0.226960 -0.860483
vn 0.456134 0.226960 -0.860483
vn 0.456134 0.226960 -0.860483
vn 0.417498 0.270821 -0.867382
vn 0.417498 0.270821 -0.867382
vn 0.417498 0.270821 -0.867382
vn 0.512674 0.054200 -0.856871
vn 0.512674 0.054200 -0.856871
vn 0.512674 0.054200 -0.856871
vn 0.332110 0.231201 -0.914466
vn 0.332110 0.231201 -0.914466
vn 0.332110 0.231201 -0.914466
vn 0.469843 -0.166192 -0.866964
vn 0.469843 -0.166192 -0.866964
vn 0.469843 -0.166192 -0.866965
vn 0.477775 -0.122807 -0.869856
vn 0.477775 -0.122807 -0.869856
vn 0.477775 -0.122807 -0.869856
vn 0.503391 -0.284735 -0.815796
vn 0.503391 -0.284735 -0.815796
vn 0.503391 -0.284735 -0.815796
vn 0.242247 -0.109490 -0.964017
vn 0.242247 -0.109490 -0.964017
vn 0.242247 -0.109490 -0.964017
vn 0.157707 -0.296481 -0.941928
vn 0.157707 -0.296481 -0.941928
vn 0.157707 -0.296481 -0.941928
vn -0.066536 -0.903641 -0.423092
vn -0.066536 -0.903641 -0.423092
vn -0.066536 -0.903641 -0.423092
vn 0.610724 -0.665197 -0.429568
vn 0.610724 -0.665197 -0.429568
vn 0.610724 -0.665197 -0.429568
vn -0.183372 -0.935162 -0.303062
vn -0.183372 -0.935162 -0.303062
vn -0.183372 -0.935162 -0.303062
vn -0.212399 -0.943296 -0.255106
vn -0.212399 -0.943296 -0.255106
vn -0.212399 -0.943296 -0.255106
vn 0.085874 -0.991880 -0.093802
vn 0.085874 -0.991880 -0.093802
vn 0.085874 -0.991880 -0.093802
vn 0.040636 -0.996077 0.078604
vn 0.040636 -0.996077 0.078604
vn 0.040636 -0.996077 0.078604
vn 0.402617 -0.899795 -0.168132
vn 0.402617 -0.899795 -0.168132
vn 0.402617 -0.899795 -0.168132
vn 0.114630 -0.984941 -0.129430
vn 0.114630 -0.984941 -0.129430
vn 0.114630 -0.984941 -0.129430
vn 0.252324 -0.945634 -0.205206
vn 0.252324 -0.945634 -0.205206
vn 0.252324 -0.945634 -0.205206
vn 0.078598 -0.970216 0.229138
vn 0.078598 -0.970216 0.229138
vn 0.078598 -0.970216 0.229138
vn 0.101001 -0.948837 0.299176
vn 0.101001 -0.948837 0.299176
vn 0.101001 -0.948837 0.299176
vn -0.164232 -0.882525 0.440656
vn -0.164232 -0.882525 0.440656
vn -0.164232 -0.882525 0.440656
vn -0.188590 -0.970440 -0.150598
vn -0.188590 -0.970440 -0.150598
vn -0.188590 -0.970440 -0.150598
vn -0.273460 -0.932359 -0.236488
vn -0.273460 -0.932359 -0.236488
vn -0.273460 -0.932359 -0.236488
vn -0.417854 -0.857412 0.300405
vn -0.417854 -0.857412 0.300405
vn -0.417854 -0.857412 0.300405
vn -0.456227 -0.889706 0.016757
vn -0.456227 -0.889706 0.016757
vn -0.456227 -0.889706 0.016757
vn -0.467415 -0.879303 0.091377
vn -0.467415 -0.879303 0.091377
vn -0.467415 -0.879303 0.091377
vn 0.517181 -0.595817 0.614431
vn 0.517181 -0.595817 0.614431
vn 0.517181 -0.595817 0.614431
vn 0.522573 -0.545593 0.655169
vn 0.522573 -0.545593 0.655169
vn 0.522573 -0.545593 0.655169
vn 0.519491 -0.667408 0.533570
vn 0.519491 -0.667408 0.533570
vn 0.519491 -0.667408 0.533570
vn 0.636288 -0.181617 0.749769
vn 0.636288 -0.181617 0.749769
vn 0.636288 -0.181617 0.749769
vn 0.560389 -0.373625 0.739168
vn 0.560389 -0.373625 0.739168
vn 0.560389 -0.373625 0.739168
vn 0.693639 -0.717357 -0.065301
vn 0.693639 -0.717357 -0.065301
vn 0.693639 -0.717357 -0.065301
vn 0.055573 -0.994909 0.084076
vn 0.055573 -0.994908 0.084076
vn 0.055573 -0.994909 0.084076
vn 0.824218 -0.564289 0.047356
vn 0.824218 -0.564289 0.047356
vn 0.824218 -0.564289 0.047356
vn 0.977441 -0.202521 0.059952
vn 0.977441 -0.202521 0.059952
vn 0.977441 -0.202521 0.059952
vn 0.946281 -0.289769 0.143480
vn 0.946281 -0.289769 0.143480
vn 0.946281 -0.289769 0.143480
vn 0.927163 -0.175131 0.331206
vn 0.927163 -0.175131 0.331206
vn 0.927163 -0.175131 0.331206
vn 0.706232 0.339050 0.621515
vn 0.706232 0.339050 0.621515
vn 0.706232 0.339050 0.621515
vn 0.937099 0.348915 0.010175
vn 0.937099 0.348914 0.010175
vn 0.937099 0.348915 0.010175
vn 0.649738 0.693432 0.311437
vn 0.649738 0.693432 0.311437
vn 0.649738 0.693432 0.311437
vn 0.744384 0.505092 0.436777
vn 0.744384 0.505092 0.436777
vn 0.744384 0.505092 0.436777
vn 0.674173 0.708122 0.209890
vn 0.674173 0.708122 0.209890
vn 0.674173 0.708122 0.209890
vn 0.512698 0.328324 0.793312
vn 0.512698 0.328324 0.793312
vn 0.512698 0.328324 0.793312
vn 0.574737 0.236028 0.783561
vn 0.574737 0.236028 0.783561
vn 0.574737 0.236028 0.783561
vn 0.587888 0.289244 0.755464
vn 0.587888 0.289244 0.755464
vn 0.587888 0.289244 0.755464
vn 0.844278 0.033797 0.534839
vn 0.844278 0.033797 0.534839
vn 0.844278 0.033797 0.534839
vn 0.392075 -0.059219 0.918025
vn 0.392075 -0.059219 0.918025
vn 0.392075 -0.059219 0.918025
vn -0.458597 -0.699660 -0.547872
vn -0.458597 -0.699660 -0.547872
vn -0.458597 -0.699660 -0.547872
vn -0.455428 -0.710583 -0.536337
vn -0.455428 -0.710583 -0.536337
vn -0.455428 -0.710583 -0.536337
vn -0.460335 -0.803213 -0.378074
vn -0.460335 -0.803213 -0.378074
vn -0.460335 -0.803213 -0.378074
vn -0.608973 0.052585 -0.791446
vn -0.608973 0.052585 -0.791446
vn -0.608973 0.052585 -0.791446
vn -0.769352 -0.601271 -0.215803
vn -0.769352 -0.601271 -0.215803
vn -0.769352 -0.601271 -0.215803
vn -0.632442 -0.763063 -0.133236
vn -0.632442 -0.763063 -0.133236
vn -0.632442 -0.763063 -0.133236
vn -0.637961 -0.769361 -0.032988
vn -0.637961 -0.769361 -0.032988
vn -0.637961 -0.769361 -0.032988
vn -0.992642 0.086049 -0.085192
vn -0.992642 0.086049 -0.085192
vn -0.992642 0.086049 -0.085192
vn -0.680752 0.508425 -0.527333
vn -0.680752 0.508425 -0.527333
vn -0.680752 0.508425 -0.527333
vn -0.244691 0.487079 -0.838380
vn -0.244691 0.487079 -0.838380
vn -0.244691 0.487079 -0.838380
vn -0.612281 0.334739 -0.716284
vn -0.612281 0.334739 -0.716284
vn -0.612281 0.334739 -0.716284
vn -0.818122 0.446705 -0.362120
vn -0.818122 0.446705 -0.362120
vn -0.818122 0.446705 -0.362120
vn -0.156549 0.528754 -0.834213
vn -0.156549 0.528754 -0.834213
vn -0.156549 0.528754 -0.834213
vn 0.662222 0.721859 0.200952
vn 0.662222 0.721859 0.200952
vn 0.662222 0.721859 0.200952
vn 0.135709 0.902339 -0.409105
vn 0.135709 0.902339 -0.409105
vn 0.135709 0.902339 -0.409105
vn 0.057633 -0.142483 -0.988118
vn 0.057633 -0.142483 -0.988118
vn 0.057633 -0.142483 -0.988118
vn -0.923619 0.291779 -0.248583
vn -0.923619 0.291779 -0.248583
vn -0.923619 0.291779 -0.248583
s off
g shrub_3 shrubs
usemtl _City:blinn5SG
f 32/1/1 17/2/2 1/3/3
f 32/1/4 12/4/5 17/2/6
f 17/2/7 12/4/8 21/5/9
f 12/4/10 33/6/11 34/7/12
f 33/6/13 2/8/14 34/7/15
f 12/4/16 34/7/17 21/5/18
f 21/5/19 34/7/20 29/9/21
f 21/5/22 29/9/23 13/10/24
f 13/10/25 29/9/26 35/11/27
f 3/12/28 21/5/29 13/10/30
f 17/2/31 21/5/32 3/12/33
f 41/13/34 13/10/35 22/14/36
f 3/12/37 13/10/38 41/13/39
f 41/13/40 22/14/41 7/15/42
f 22/14/43 13/10/44 23/16/45
f 35/11/46 36/17/47 13/10/48
f 23/16/49 36/17/50 14/18/51
f 23/16/52 13/10/53 36/17/54
f 23/16/55 37/19/56 18/20/57
f 18/20/58 37/19/59 38/21/60
f 15/22/61 18/20/62 38/21/63
f 7/15/64 22/14/65 40/23/66
f 40/23/67 22/14/68 39/24/69
f 22/14/70 23/16/71 39/24/72
f 39/24/73 23/16/74 15/22/75
f 40/23/76 39/24/77 4/25/78
f 4/25/79 19/26/80 45/27/81
f 15/22/82 19/26/83 39/24/84
f 19/26/85 24/28/86 45/27/87
f 45/27/88 24/28/89 31/29/90
f 38/21/91 19/26/92 15/22/93
f 19/26/94 38/21/95 42/30/96
f 19/26/97 42/30/98 24/28/99
f 24/28/100 42/30/101 8/31/102
f 9/32/103 24/28/104 43/33/105
f 8/31/106 43/33/107 24/28/108
f 43/33/109 6/34/110 9/32/111
f 24/28/112 9/32/113 31/29/114
f 31/29/115 9/32/116 44/35/117
f 9/32/118 25/36/119 44/35/120
f 44/35/121 25/36/122 5/37/123
f 5/37/124 25/36/125 49/38/126
f 49/38/127 25/36/128 11/39/129
f 9/32/130 10/40/131 25/36/132
f 6/34/133 46/41/134 9/32/135
f 9/32/136 46/41/137 10/40/138
f 10/40/139 47/42/140 25/36/141
f 25/36/142 47/42/143 26/43/144
f 47/42/145 2/44/146 33/45/147
f 47/42/148 33/45/149 26/43/150
f 26/43/151 33/45/152 12/46/153
f 11/39/154 25/36/155 48/47/156
f 48/47/157 25/36/158 26/43/159
f 32/48/160 26/43/161 12/46/162
f 48/47/163 26/43/164 1/49/165
f 1/49/166 26/43/167 32/48/168
f 47/50/169 27/51/170 2/8/171
f 2/8/172 27/51/173 34/7/174
f 47/50/175 10/52/176 27/51/177
f 27/51/178 16/53/179 29/9/180
f 27/51/181 29/9/182 34/7/183
f 10/52/184 46/54/185 27/51/186
f 6/55/187 27/51/188 46/54/189
f 27/51/190 6/55/191 43/56/192
f 43/56/193 8/57/194 28/58/195
f 43/56/196 28/58/197 27/51/198
f 27/51/199 28/58/200 16/53/201
f 16/53/202 28/58/203 14/59/204
f 8/57/205 42/60/206 28/58/207
f 28/58/208 42/60/209 37/61/210
f 37/61/211 42/60/212 38/62/213
f 28/58/214 37/61/215 14/59/216
f 29/9/217 20/63/218 35/11/219
f 20/63/220 16/53/221 14/59/222
f 16/53/223 20/63/224 29/9/225
f 20/63/226 14/59/227 36/64/228
f 35/11/229 20/63/230 36/64/231
f 49/65/232 30/66/233 5/67/234
f 5/67/235 30/66/236 44/68/237
f 11/69/238 30/66/239 49/65/240
f 30/66/241 31/70/242 44/68/243
f 48/71/244 17/2/245 11/69/246
f 11/69/247 17/2/248 30/66/249
f 48/71/250 1/3/251 17/2/252
f 30/66/253 17/2/254 3/12/255
f 30/66/256 41/72/257 7/73/258
f 45/74/259 31/70/260 40/75/261
f 31/70/262 30/66/263 40/75/264
f 40/75/265 30/66/266 7/73/267
f 45/74/268 40/75/269 4/76/270
f 23/16/271 14/18/272 37/19/273
f 23/16/274 18/20/275 15/22/276
f 4/25/277 39/24/278 19/26/279
f 3/12/280 41/72/281 30/66/282
