# This file uses centimeters as units for non-parametric coordinates.

mtllib shrub_4.mtl
g default
v -1.377082 0.722205 2.141338
v 1.425542 -0.081467 3.785946
v -2.597377 5.370240 1.086631
v 1.604181 3.796096 3.054155
v 0.513291 4.300849 -2.522823
v 1.996181 5.731073 -0.831405
v 1.241942 0.199344 -1.338118
v 3.339824 0.016984 0.075115
v -1.045829 5.205989 -0.857327
v 2.040652 4.240459 -0.755525
v 2.564416 0.050589 -1.537854
v 0.694289 2.686478 -3.022116
v 3.392174 -0.589079 2.745400
v -1.005184 0.394277 0.178112
v 0.105778 0.146431 3.815153
v 1.499483 1.969529 4.116385
v -0.806708 5.584674 2.731685
v -3.050443 3.805406 1.641984
v 2.028222 5.500194 1.410381
v 1.843446 5.434201 -2.679182
v -0.704841 2.520003 3.834212
v 1.123452 7.269811 -0.009845
v 2.134845 2.747060 -3.052729
v 1.232672 -1.312449 1.787807
v 3.133403 2.958568 2.356090
v -1.754436 3.217087 -0.901626
vt 0.421859 0.076554
vt 0.372182 0.173881
vt 0.295093 0.080860
vt 0.238356 0.229145
vt 0.489320 0.078370
vt 0.467412 0.171699
vt 0.468499 0.270022
vt 0.331221 0.296174
vt 0.216949 0.307420
vt 0.351970 0.433249
vt 0.229064 0.443842
vt 0.431382 0.378329
vt 0.399238 0.492223
vt 0.339249 0.545701
vt 0.265907 0.573037
vt 0.357542 0.646585
vt 0.298475 0.667167
vt 0.430497 0.550559
vt 0.524329 0.742464
vt 0.442235 0.747285
vt 0.398601 0.789182
vt 0.527360 0.876336
vt 0.391133 0.920302
vt 0.624687 0.828364
vt 0.606050 0.939525
vt 0.562697 0.988795
vt 0.450633 0.999501
vt 0.598682 0.086835
vt 0.551798 0.242710
vt 0.702572 0.168936
vt 0.641969 0.374000
vt 0.604477 0.432735
vt 0.520060 0.370348
vt 0.196002 0.055381
vt 0.131664 0.184582
vt 0.078611 0.000500
vt 0.000351 0.124924
vt 0.098557 0.274968
vt 0.002400 0.206642
vn -0.765139 -0.266018 0.586342
vn -0.765139 -0.266018 0.586342
vn -0.765139 -0.266018 0.586342
vn -0.733917 -0.299592 0.609599
vn -0.733917 -0.299592 0.609599
vn -0.733917 -0.299592 0.609599
vn 0.022038 -0.000501 0.999757
vn 0.022038 -0.000501 0.999757
vn 0.022038 -0.000501 0.999757
vn -0.162579 -0.151229 0.975037
vn -0.162579 -0.151229 0.975037
vn -0.162579 -0.151229 0.975037
vn 0.014678 0.502034 0.864723
vn 0.014678 0.502034 0.864723
vn 0.014678 0.502034 0.864723
vn 0.127215 0.339505 0.931962
vn 0.127215 0.339505 0.931962
vn 0.127215 0.339505 0.931962
vn -0.489997 0.414104 0.767086
vn -0.489997 0.414104 0.767086
vn -0.489997 0.414104 0.767086
vn -0.673146 0.230423 0.702695
vn -0.673146 0.230422 0.702695
vn -0.673146 0.230422 0.702695
vn -0.367867 0.885109 0.285055
vn -0.367867 0.885109 0.285055
vn -0.367867 0.885109 0.285055
vn -0.507373 0.724734 -0.466189
vn -0.507373 0.724734 -0.466189
vn -0.507373 0.724734 -0.466189
vn 0.385701 0.639757 0.664790
vn 0.385701 0.639757 0.664790
vn 0.385700 0.639757 0.664790
vn 0.155625 0.665461 0.730029
vn 0.155625 0.665461 0.730029
vn 0.155625 0.665461 0.730029
vn 0.877530 0.478116 0.036698
vn 0.877530 0.478116 0.036698
vn 0.877530 0.478116 0.036698
vn 0.821095 0.549037 -0.156081
vn 0.821095 0.549037 -0.156081
vn 0.821095 0.549037 -0.156081
vn -0.349644 0.646108 -0.678450
vn -0.349644 0.646108 -0.678450
vn -0.349644 0.646108 -0.678450
vn -0.573103 0.594859 -0.563645
vn -0.573103 0.594859 -0.563645
vn -0.573103 0.594859 -0.563645
vn -0.209828 0.112265 -0.971272
vn -0.209828 0.112265 -0.971272
vn -0.209828 0.112265 -0.971272
vn -0.032593 0.291978 -0.955870
vn -0.032593 0.291978 -0.955870
vn -0.032593 0.291978 -0.955870
vn 0.987475 0.121136 -0.101085
vn 0.987475 0.121136 -0.101085
vn 0.987475 0.121136 -0.101085
vn 0.999305 0.030878 0.020901
vn 0.999305 0.030878 0.020901
vn 0.999305 0.030878 0.020901
vn 0.954242 0.267079 -0.134500
vn 0.954242 0.267079 -0.134500
vn 0.954242 0.267079 -0.134500
vn 0.895892 -0.100411 -0.432777
vn 0.895892 -0.100411 -0.432777
vn 0.895892 -0.100411 -0.432777
vn 0.005931 -0.559752 -0.828639
vn 0.005931 -0.559752 -0.828639
vn 0.005931 -0.559752 -0.828639
vn -0.184130 -0.503556 -0.844114
vn -0.184130 -0.503556 -0.844114
vn -0.184130 -0.503556 -0.844114
vn -0.164774 -0.887747 -0.429830
vn -0.164774 -0.887747 -0.429830
vn -0.164774 -0.887747 -0.429830
vn -0.349014 -0.843228 -0.408846
vn -0.349014 -0.843228 -0.408846
vn -0.349014 -0.843228 -0.408846
vn 0.394993 -0.894705 -0.208526
vn 0.394993 -0.894705 -0.208526
vn 0.394993 -0.894705 -0.208526
vn 0.393263 -0.894928 -0.210828
vn 0.393263 -0.894928 -0.210828
vn 0.393263 -0.894928 -0.210828
vn 0.055028 -0.852473 0.519867
vn 0.055028 -0.852473 0.519867
vn 0.055028 -0.852473 0.519867
vn -0.133005 -0.838051 0.529132
vn -0.133005 -0.838051 0.529132
vn -0.133005 -0.838051 0.529132
vn -0.613455 -0.789574 0.015679
vn -0.613455 -0.789574 0.015679
vn -0.613455 -0.789574 0.015679
vn -0.576043 -0.780863 0.241718
vn -0.576043 -0.780863 0.241718
vn -0.576043 -0.780863 0.241718
vn 0.489756 0.130325 0.862064
vn 0.489756 0.130325 0.862064
vn 0.489756 0.130325 0.862064
vn 0.762014 -0.129687 0.634441
vn 0.762014 -0.129687 0.634441
vn 0.762014 -0.129687 0.634441
vn 0.997370 0.072407 -0.003119
vn 0.997370 0.072407 -0.003119
vn 0.997370 0.072407 -0.003119
vn 0.941958 0.244504 -0.230073
vn 0.941958 0.244504 -0.230073
vn 0.941958 0.244504 -0.230073
vn 0.944923 0.011541 -0.327088
vn 0.944923 0.011541 -0.327088
vn 0.944923 0.011541 -0.327088
vn 0.912687 0.407633 0.028936
vn 0.912687 0.407633 0.028936
vn 0.912687 0.407633 0.028936
vn 0.551759 0.395408 0.734312
vn 0.551759 0.395408 0.734312
vn 0.551759 0.395408 0.734312
vn 0.569975 0.492552 0.657664
vn 0.569975 0.492552 0.657664
vn 0.569975 0.492552 0.657664
vn -0.531953 -0.422002 -0.734126
vn -0.531953 -0.422002 -0.734126
vn -0.531953 -0.422002 -0.734126
vn -0.617970 -0.529540 -0.581120
vn -0.617970 -0.529540 -0.581120
vn -0.617970 -0.529540 -0.581120
vn -0.945136 -0.300170 -0.128900
vn -0.945136 -0.300170 -0.128900
vn -0.945136 -0.300170 -0.128900
vn -0.816439 -0.492051 -0.302180
vn -0.816439 -0.492051 -0.302180
vn -0.816439 -0.492051 -0.302180
vn -0.879118 0.088315 -0.468350
vn -0.879118 0.088315 -0.468350
vn -0.879118 0.088315 -0.468350
vn -0.739419 0.277106 -0.613572
vn -0.739419 0.277106 -0.613572
vn -0.739419 0.277106 -0.613572
vn -0.624757 0.165931 -0.762985
vn -0.624757 0.165931 -0.762985
vn -0.624757 0.165931 -0.762985
vn -0.638414 0.243715 -0.730089
vn -0.638414 0.243715 -0.730089
vn -0.638414 0.243715 -0.730089
s off
g shrub_4 shrubs
usemtl _City:blinn5SG
f 15/1/1 21/2/2 1/3/3
f 1/3/4 21/2/5 18/4/6
f 15/1/7 2/5/8 21/2/9
f 21/2/10 2/5/11 16/6/12
f 16/6/13 4/7/14 21/2/15
f 21/2/16 4/7/17 17/8/18
f 18/4/19 21/2/20 3/9/21
f 3/9/22 21/2/23 17/8/24
f 17/8/25 22/10/26 3/9/27
f 3/9/28 22/10/29 9/11/30
f 17/8/31 4/7/32 22/10/33
f 22/10/34 4/7/35 19/12/36
f 19/12/37 6/13/38 22/10/39
f 22/10/40 6/13/41 20/14/42
f 9/11/43 22/10/44 5/15/45
f 5/15/46 22/10/47 20/14/48
f 20/14/49 23/16/50 5/15/51
f 5/15/52 23/16/53 12/17/54
f 20/14/55 6/13/56 23/16/57
f 23/16/58 6/13/59 10/18/60
f 10/18/61 8/19/62 23/16/63
f 23/16/64 8/19/65 11/20/66
f 12/17/67 23/16/68 7/21/69
f 7/21/70 23/16/71 11/20/72
f 11/20/73 24/22/74 7/21/75
f 7/21/76 24/22/77 14/23/78
f 11/20/79 8/19/80 24/22/81
f 24/22/82 8/19/83 13/24/84
f 13/24/85 2/25/86 24/22/87
f 24/22/88 2/25/89 15/26/90
f 14/23/91 24/22/92 1/27/93
f 1/27/94 24/22/95 15/26/96
f 13/28/97 25/29/98 2/5/99
f 2/5/100 25/29/101 16/6/102
f 13/28/103 8/30/104 25/29/105
f 25/29/106 8/30/107 10/31/108
f 10/31/109 6/32/110 25/29/111
f 25/29/112 6/32/113 19/33/114
f 16/6/115 25/29/116 4/7/117
f 4/7/118 25/29/119 19/33/120
f 14/34/121 26/35/122 7/36/123
f 7/36/124 26/35/125 12/37/126
f 14/34/127 1/3/128 26/35/129
f 26/35/130 1/3/131 18/4/132
f 18/4/133 3/9/134 26/35/135
f 26/35/136 3/9/137 9/38/138
f 12/37/139 26/35/140 5/39/141
f 5/39/142 26/35/143 9/38/144
